<svg width="164" height="48" viewBox="0 0 164 48" fill="none" xmlns="http://www.w3.org/2000/svg">
<path fill-rule="evenodd" clip-rule="evenodd" d="M48 24C48 37.2548 37.2548 48 24 48C10.7452 48 0 37.2548 0 24C0 10.7452 10.7452 0 24 0C37.2548 0 48 10.7452 48 24ZM36 24C36 30.6274 30.6274 36 24 36C17.3726 36 12 30.6274 12 24C12 17.3726 17.3726 12 24 12C30.6274 12 36 17.3726 36 24ZM24 32C28.4183 32 32 28.4183 32 24C32 19.5817 28.4183 16 24 16C19.5817 16 16 19.5817 16 24C16 28.4183 19.5817 32 24 32Z" fill="white"/>
<path d="M68.544 36L63.04 18.08H62.912C62.9333 18.5067 62.9653 19.1467 63.008 20C63.0507 20.8533 63.0933 21.7707 63.136 22.752C63.1787 23.712 63.2 24.5867 63.2 25.376V36H58.88V13.152H65.472L70.88 30.624H70.976L76.704 13.152H83.296V36H78.784V25.184C78.784 24.4587 78.7947 23.6267 78.816 22.688C78.8587 21.7493 78.8907 20.864 78.912 20.032C78.9547 19.1787 78.9867 18.5387 79.008 18.112H78.88L72.992 36H68.544ZM104.204 18.496C104.204 20.032 103.66 21.2693 102.572 22.208C101.484 23.1467 100.097 23.7333 98.4115 23.968V24.064C100.502 24.2773 102.102 24.864 103.212 25.824C104.342 26.7627 104.908 27.9893 104.908 29.504C104.908 30.8267 104.545 32.0107 103.82 33.056C103.094 34.08 102.017 34.88 100.588 35.456C99.1582 36.032 97.3875 36.32 95.2755 36.32C93.5475 36.32 92.0115 36.2133 90.6675 36C89.3448 35.7867 88.1928 35.4773 87.2115 35.072V31.008C87.8728 31.328 88.6195 31.6053 89.4515 31.84C90.2835 32.0533 91.1262 32.224 91.9795 32.352C92.8328 32.4587 93.6222 32.512 94.3475 32.512C96.3742 32.512 97.8355 32.224 98.7315 31.648C99.6488 31.0507 100.108 30.2187 100.108 29.152C100.108 28.064 99.4462 27.2747 98.1235 26.784C96.8008 26.272 95.0195 26.016 92.7795 26.016H90.6355V22.24H92.5555C94.3688 22.24 95.7768 22.1227 96.7795 21.888C97.7822 21.6533 98.4862 21.312 98.8915 20.864C99.2968 20.416 99.4995 19.8827 99.4995 19.264C99.4995 18.4747 99.1475 17.856 98.4435 17.408C97.7608 16.9387 96.7262 16.704 95.3395 16.704C94.1662 16.704 93.0568 16.8747 92.0115 17.216C90.9875 17.5573 90.0275 18.0053 89.1315 18.56L87.0195 15.328C87.8088 14.816 88.6408 14.3787 89.5155 14.016C90.4115 13.632 91.3928 13.344 92.4595 13.152C93.5262 12.9387 94.7102 12.832 96.0115 12.832C97.7395 12.832 99.2115 13.0773 100.428 13.568C101.644 14.0587 102.572 14.7307 103.212 15.584C103.873 16.416 104.204 17.3867 104.204 18.496ZM115.322 18.176C117.668 18.176 119.46 18.688 120.698 19.712C121.956 20.7147 122.586 22.2613 122.586 24.352V36H119.258L118.33 33.632H118.202C117.711 34.2507 117.199 34.7627 116.666 35.168C116.154 35.5733 115.556 35.8613 114.874 36.032C114.212 36.224 113.391 36.32 112.41 36.32C111.386 36.32 110.458 36.128 109.626 35.744C108.815 35.3387 108.175 34.7307 107.706 33.92C107.236 33.088 107.002 32.0427 107.002 30.784C107.002 28.928 107.652 27.5627 108.954 26.688C110.255 25.792 112.207 25.3013 114.81 25.216L117.85 25.12V24.352C117.85 23.4347 117.604 22.7627 117.114 22.336C116.644 21.9093 115.983 21.696 115.13 21.696C114.276 21.696 113.444 21.824 112.634 22.08C111.823 22.3147 111.012 22.6133 110.202 22.976L108.634 19.744C109.572 19.2533 110.607 18.8693 111.738 18.592C112.89 18.3147 114.084 18.176 115.322 18.176ZM115.994 27.968C114.458 28.0107 113.391 28.288 112.794 28.8C112.196 29.312 111.898 29.984 111.898 30.816C111.898 31.5413 112.111 32.064 112.538 32.384C112.964 32.6827 113.519 32.832 114.202 32.832C115.226 32.832 116.09 32.5333 116.794 31.936C117.498 31.3173 117.85 30.4533 117.85 29.344V27.904L115.994 27.968ZM133.994 18.176C136.341 18.176 138.133 18.688 139.37 19.712C140.629 20.7147 141.258 22.2613 141.258 24.352V36H137.93L137.002 33.632H136.874C136.383 34.2507 135.871 34.7627 135.338 35.168C134.826 35.5733 134.229 35.8613 133.546 36.032C132.885 36.224 132.063 36.32 131.082 36.32C130.058 36.32 129.13 36.128 128.298 35.744C127.487 35.3387 126.847 34.7307 126.378 33.92C125.909 33.088 125.674 32.0427 125.674 30.784C125.674 28.928 126.325 27.5627 127.626 26.688C128.927 25.792 130.879 25.3013 133.482 25.216L136.522 25.12V24.352C136.522 23.4347 136.277 22.7627 135.786 22.336C135.317 21.9093 134.655 21.696 133.802 21.696C132.949 21.696 132.117 21.824 131.306 22.08C130.495 22.3147 129.685 22.6133 128.874 22.976L127.306 19.744C128.245 19.2533 129.279 18.8693 130.41 18.592C131.562 18.3147 132.757 18.176 133.994 18.176ZM134.666 27.968C133.13 28.0107 132.063 28.288 131.466 28.8C130.869 29.312 130.57 29.984 130.57 30.816C130.57 31.5413 130.783 32.064 131.21 32.384C131.637 32.6827 132.191 32.832 132.874 32.832C133.898 32.832 134.762 32.5333 135.466 31.936C136.17 31.3173 136.522 30.4533 136.522 29.344V27.904L134.666 27.968ZM161.147 36H156.379V22.112H151.995C151.781 24.672 151.515 26.8587 151.195 28.672C150.896 30.464 150.512 31.9253 150.043 33.056C149.595 34.1867 149.019 35.0187 148.315 35.552C147.611 36.064 146.747 36.32 145.723 36.32C145.168 36.32 144.667 36.2773 144.219 36.192C143.771 36.1067 143.365 35.9787 143.003 35.808V32C143.237 32.0853 143.483 32.16 143.739 32.224C143.995 32.288 144.261 32.32 144.539 32.32C144.837 32.32 145.115 32.2027 145.371 31.968C145.648 31.7333 145.904 31.3173 146.139 30.72C146.395 30.1227 146.629 29.3013 146.843 28.256C147.056 27.2107 147.248 25.8987 147.419 24.32C147.611 22.72 147.781 20.7893 147.931 18.528H161.147V36Z" fill="white"/>
</svg>
